<svg xmlns="http://www.w3.org/2000/svg" viewBox="0 0 19.84 19.83"><defs><style>.cls-1{fill:#fff;}</style></defs><g id="Layer_2" data-name="Layer 2"><g id="Base_Layer" data-name="Base Layer"><path class="cls-1" d="M17.3,0a2.54,2.54,0,0,1,2.54,2.53V17.27a2.54,2.54,0,0,1-2.54,2.56H2.57A2.54,2.54,0,0,1,0,17.27V2.53A2.54,2.54,0,0,1,2.57,0Zm.31,8.39H15.83a4.08,4.08,0,0,1,.26,1.7,6,6,0,0,1-6.15,6,6.05,6.05,0,0,1-6.16-6,4.09,4.09,0,0,1,.3-1.7H2.19v8.35a.81.81,0,0,0,.83.79H16.81a.8.8,0,0,0,.8-.79ZM6,9.9a3.91,3.91,0,0,0,4,3.81,3.92,3.92,0,0,0,4-3.81A3.91,3.91,0,0,0,9.94,6,3.91,3.91,0,0,0,6,9.9Zm8.46-7.75a1,1,0,0,0-.87.91V5.25a1,1,0,0,0,.87.87H16.7a.94.94,0,0,0,.91-.87V3.06a1,1,0,0,0-.91-.91Z"/></g></g></svg>