<svg xmlns="http://www.w3.org/2000/svg" viewBox="0 0 19.24 21.43"><defs><style>.cls-1{fill:#fff;}</style></defs><g id="Layer_2" data-name="Layer 2"><g id="Base_Layer" data-name="Base Layer"><path class="cls-1" d="M2.57,0A2.47,2.47,0,0,1,4.42.78a2.53,2.53,0,0,1,.76,1.87A2.51,2.51,0,0,1,4.42,4.5a2.52,2.52,0,0,1-1.85.75A2.46,2.46,0,0,1,.74,4.5,2.57,2.57,0,0,1,0,2.65,2.6,2.6,0,0,1,.74.78,2.41,2.41,0,0,1,2.57,0ZM.45,21.43V6.8H4.69V21.43ZM11,6.8v.68A5.33,5.33,0,0,1,13.68,7a6.7,6.7,0,0,1,2.73.68,5.3,5.3,0,0,1,2.05,2.07,5.57,5.57,0,0,1,.78,2.8v8.92H15.08V12.51a1.49,1.49,0,0,0-.23-.72.92.92,0,0,0-.49-.49A2.1,2.1,0,0,0,13.12,11a3.71,3.71,0,0,0-1.1.3,4.32,4.32,0,0,0-1.06.72v9.37H6.73V6.8Z"/></g></g></svg>