<svg xmlns="http://www.w3.org/2000/svg" viewBox="0 0 399.67 71.58"><defs><style>.cls-1{fill:#fff;}</style></defs><g id="Layer_2" data-name="Layer 2"><g id="Layer_1-2" data-name="Layer 1"><path class="cls-1" d="M27.69.55h3.77L42.58,33,54.17.67H59L44.49,39.73H40.61L29.49,8.26,18.3,39.73H14.48L0,.67H5L16.57,33Z"/><path class="cls-1" d="M117.2,39.45h-4.93L107.52,29.2H85.45L80.64,39.45H76L94.43.39h4.28ZM96.51,5.54,87.24,25.32h18.49Z"/><path class="cls-1" d="M142.57.67h4.58V35.4H170v4.05h-27.4Z"/><path class="cls-1" d="M205.31,39.45h-4.58V4.71H187.12v-4h31.8v4H205.31Z"/><path class="cls-1" d="M280.21,27.67a19.73,19.73,0,0,1-4.23,6.4,20.06,20.06,0,0,1-6.54,4.41,22.89,22.89,0,0,1-16.89,0A20.14,20.14,0,0,1,246,34.16a19.41,19.41,0,0,1-4.2-6.37,20.27,20.27,0,0,1-1.47-7.68,19.9,19.9,0,0,1,1.5-7.67A19.87,19.87,0,0,1,252.64,1.63a22.8,22.8,0,0,1,16.88,0A20,20,0,0,1,276,6a19,19,0,0,1,4.2,6.37A20.07,20.07,0,0,1,281.72,20,19.65,19.65,0,0,1,280.21,27.67Zm-4.43-13.82a15.23,15.23,0,0,0-3.33-5.1,16.16,16.16,0,0,0-5.07-3.43A15.83,15.83,0,0,0,261,4a16.16,16.16,0,0,0-6.4,1.25,15.09,15.09,0,0,0-5,3.41,15.82,15.82,0,0,0-3.28,5.07A16.37,16.37,0,0,0,245.11,20a16.56,16.56,0,0,0,1.18,6.26,15.23,15.23,0,0,0,3.33,5.1,16,16,0,0,0,11.47,4.71,16.21,16.21,0,0,0,6.41-1.25,14.94,14.94,0,0,0,5-3.41,15.86,15.86,0,0,0,3.27-5.06A16.39,16.39,0,0,0,277,20.11,16.6,16.6,0,0,0,275.78,13.85Z"/><path class="cls-1" d="M338.61.67h4.46V39.45h-3.65L313.23,7.65v31.8h-4.46V.67h4.29l25.55,31.08Z"/><path class="cls-1" d="M375.92,12.81a4.9,4.9,0,0,0,1.67,2A12.64,12.64,0,0,0,381,16.5a42.67,42.67,0,0,0,5.51,1.42q6.78,1.44,10,4A8.53,8.53,0,0,1,399.67,29a10.08,10.08,0,0,1-1,4.55A10.47,10.47,0,0,1,395.8,37a13.08,13.08,0,0,1-4.36,2.22,19.26,19.26,0,0,1-5.56.77A25.24,25.24,0,0,1,377,38.5a25.16,25.16,0,0,1-7.68-4.65l2.84-3.21a24.06,24.06,0,0,0,6.43,4.13,19.29,19.29,0,0,0,7.47,1.35,10.79,10.79,0,0,0,6.58-1.83,5.73,5.73,0,0,0,2.46-4.82,6.18,6.18,0,0,0-.46-2.47A5.05,5.05,0,0,0,393,25a11.88,11.88,0,0,0-3.22-1.61A42.47,42.47,0,0,0,384.52,22a45.28,45.28,0,0,1-6.07-1.66,15.43,15.43,0,0,1-4.27-2.28A8.38,8.38,0,0,1,371.69,15a10.07,10.07,0,0,1-.82-4.21,9.3,9.3,0,0,1,1-4.28,10,10,0,0,1,2.78-3.35A13.51,13.51,0,0,1,378.87.92,16.78,16.78,0,0,1,384.2.11,23.25,23.25,0,0,1,392,1.29a23.88,23.88,0,0,1,6.46,3.53L395.78,8.2A19.79,19.79,0,0,0,390.08,5a18,18,0,0,0-6-1,12,12,0,0,0-3.56.5,9.2,9.2,0,0,0-2.72,1.33,5.81,5.81,0,0,0-1.74,2,5.28,5.28,0,0,0-.61,2.5A6.39,6.39,0,0,0,375.92,12.81Z"/><path class="cls-1" d="M139,71.44h-1.09l-1.05-2.27H132L131,71.44h-1L134,62.81h.94Zm-4.57-7.5-2.05,4.37h4.08Z"/><path class="cls-1" d="M151.23,62.87h1v8.57h-.8l-5.79-7v7h-1V62.87h1l5.65,6.86Z"/><path class="cls-1" d="M166.11,68.83a3.83,3.83,0,0,1-1,1.37,4.83,4.83,0,0,1-1.51.91,5.37,5.37,0,0,1-1.92.33h-3.11V62.87h3.11a5.37,5.37,0,0,1,1.92.32,4.63,4.63,0,0,1,1.51.9,3.88,3.88,0,0,1,1,1.36,4.26,4.26,0,0,1,0,3.38Zm-1-3a3.18,3.18,0,0,0-.75-1.08,3.47,3.47,0,0,0-1.17-.73,4.38,4.38,0,0,0-1.53-.26h-2.1v6.78h2.1a4.17,4.17,0,0,0,1.53-.26,3.28,3.28,0,0,0,1.17-.71,3.34,3.34,0,0,0,.75-1.07,3.44,3.44,0,0,0,.26-1.34A3.5,3.5,0,0,0,165.15,65.83Z"/><path class="cls-1" d="M187.07,70.7a4.63,4.63,0,0,1-.81.47,4.5,4.5,0,0,1-.94.3,4.75,4.75,0,0,1-1.11.11,4.53,4.53,0,0,1-1.79-.34A4.35,4.35,0,0,1,181,70.3a4.11,4.11,0,0,1-.94-1.4,4.39,4.39,0,0,1-.34-1.74,4.33,4.33,0,0,1,.34-1.72,4.31,4.31,0,0,1,2.37-2.37,4.72,4.72,0,0,1,1.82-.35,5.39,5.39,0,0,1,1.11.1,4.37,4.37,0,0,1,.91.27,4.2,4.2,0,0,1,.78.43,6,6,0,0,1,.69.56l-.69.71a5.63,5.63,0,0,0-1.23-.85,3.51,3.51,0,0,0-1.58-.33,3.47,3.47,0,0,0-1.38.27,3.36,3.36,0,0,0-1.1.75,3.73,3.73,0,0,0-.73,3.9,3.49,3.49,0,0,0,.73,1.13,3.36,3.36,0,0,0,1.1.75,3.31,3.31,0,0,0,1.38.28,3.51,3.51,0,0,0,1.58-.33,5.35,5.35,0,0,0,1.31-.91l.66.63A7,7,0,0,1,187.07,70.7Z"/><path class="cls-1" d="M201.55,68.83a4.32,4.32,0,0,1-2.38,2.39,4.69,4.69,0,0,1-1.87.36,4.85,4.85,0,0,1-1.86-.35,4.54,4.54,0,0,1-1.44-1,4.44,4.44,0,0,1-.93-1.41,4.63,4.63,0,0,1-.32-1.7A4.45,4.45,0,0,1,194,64.05a4.6,4.6,0,0,1,3.32-1.33,4.67,4.67,0,0,1,1.86.36,4.23,4.23,0,0,1,1.44,1,4.29,4.29,0,0,1,.93,1.4,4.44,4.44,0,0,1,.33,1.7A4.22,4.22,0,0,1,201.55,68.83Zm-1-3a3.28,3.28,0,0,0-.73-1.13,3.82,3.82,0,0,0-1.12-.76,3.72,3.72,0,0,0-2.83,0,3.3,3.3,0,0,0-1.11.75,3.71,3.71,0,0,0-.72,1.12,3.79,3.79,0,0,0,0,2.76,3.36,3.36,0,0,0,.74,1.13,3.52,3.52,0,0,0,1.12.76,3.69,3.69,0,0,0,2.82,0,3.3,3.3,0,0,0,1.11-.75,3.37,3.37,0,0,0,.72-1.12,3.66,3.66,0,0,0,0-2.76Z"/><path class="cls-1" d="M212.16,69.09h0l-3.26-4.58v6.93h-1V62.87h1l3.26,4.67,3.27-4.67h1v8.57h-1v-7Z"/><path class="cls-1" d="M229.24,66.82a2.58,2.58,0,0,1-.76.88,3.22,3.22,0,0,1-1.12.53,5,5,0,0,1-1.36.18h-2.17v3h-1V62.87h3.36a4.54,4.54,0,0,1,1.37.19,3,3,0,0,1,1.07.54,2.23,2.23,0,0,1,.67.85,2.66,2.66,0,0,1,.24,1.15A2.53,2.53,0,0,1,229.24,66.82Zm-1.39-2.59a3,3,0,0,0-1.75-.47h-2.27v3.77h2.22a3.51,3.51,0,0,0,1-.13,2.34,2.34,0,0,0,.79-.39,1.91,1.91,0,0,0,.5-.6,1.79,1.79,0,0,0,.17-.78A1.61,1.61,0,0,0,227.85,64.23Z"/><path class="cls-1" d="M242.65,71.44h-1.08l-1-2.27h-4.88l-1.06,2.27h-1l4.08-8.63h.95Zm-4.56-7.5L236,68.31h4.08Z"/><path class="cls-1" d="M254.85,62.87h1v8.57H255l-5.79-7v7h-1V62.87h1l5.64,6.86Z"/><path class="cls-1" d="M266,71.44h-1V68.05l-3.73-5.18h1.23l3,4.28,3-4.28h1.18L266,68Z"/></g></g></svg>