<svg xmlns="http://www.w3.org/2000/svg" viewBox="0 0 22.19 18.07"><defs><style>.cls-1{fill:#fff;}</style></defs><g id="Layer_2" data-name="Layer 2"><g id="Base_Layer" data-name="Base Layer"><path class="cls-1" d="M22.19,2.15a10.67,10.67,0,0,1-2.27,2.39v.52a13.24,13.24,0,0,1-.85,4.6,13,13,0,0,1-2.5,4.19,12.64,12.64,0,0,1-4,3A12.5,12.5,0,0,1,7,18.07a12.15,12.15,0,0,1-3.68-.55A13.28,13.28,0,0,1,0,16a4.73,4.73,0,0,0,.53,0H1.1A8.66,8.66,0,0,0,6.73,14.1a4.37,4.37,0,0,1-2.67-.93,4.41,4.41,0,0,1-1.57-2.24,3.8,3.8,0,0,0,.84.11A5.87,5.87,0,0,0,4,11a4.65,4.65,0,0,0,.59-.11A4.62,4.62,0,0,1,1.91,9.32a4.35,4.35,0,0,1-1-2.89v0a5.82,5.82,0,0,0,1,.38A4.13,4.13,0,0,0,3,6.92,4.14,4.14,0,0,1,1.47,5.33,4.55,4.55,0,0,1,.94,3.14,4.75,4.75,0,0,1,1.55.83,12.84,12.84,0,0,0,5.67,4.21a12.05,12.05,0,0,0,5.25,1.38,4.32,4.32,0,0,1-.11-1,4.51,4.51,0,0,1,.36-1.79,4.72,4.72,0,0,1,1-1.48,4.9,4.9,0,0,1,1.44-1A4.3,4.3,0,0,1,15.35,0,4.18,4.18,0,0,1,17.2.4a5.23,5.23,0,0,1,1.47,1A6.94,6.94,0,0,0,20.18,1a15.35,15.35,0,0,0,1.4-.64,5,5,0,0,1-2,2.49,8.19,8.19,0,0,0,1.36-.26A10.33,10.33,0,0,0,22.19,2.15Z"/></g></g></svg>